<svg xmlns="http://www.w3.org/2000/svg" viewBox="0 0 32 32">
  <!-- <rect width="32" height="32" rx="2" fill="#0f172a"/> -->

  <rect x="0" y="2" width="3" height="32" rx="0.1" fill="#334155"/>
  <rect x="30" y="2" width="3" height="32" rx="0.1" fill="#334155"/>

  <rect x="3" y="2"  width="27" height="32" rx="0.1" fill="#475569"/>
  <rect x="3" y="5"  width="27" height="2" rx="0.1" fill="#64748b"/>
  <rect x="3" y="10"  width="27" height="2" rx="0.1" fill="#64748b"/>
  <rect x="3" y="15"  width="27" height="2" rx="0.1" fill="#64748b"/>
  <rect x="3" y="20"  width="27" height="2" rx="0.1" fill="#64748b"/>
  <rect x="3" y="25"  width="27" height="2" rx="0.1" fill="#64748b"/>
  <rect x="3" y="30"  width="27" height="2" rx="0.1" fill="#64748b"/>

  <rect x="11" y="27" width="10" height="2" rx="0.5" fill="#94a3b8"/>

  <!-- Monogram "G" as path (stroke-based open-end arc + horizontal bar) -->
  <!-- Arc center ≈ (15.5, 16), radius 9.5 -->
  <!-- Opening at upper-right, bar extends leftward at mid-height -->
  <path
    d="M 22,9 A 9.5,9.5 0 1 0 25,16 L 15,16"
    fill="none"
    stroke="#f1f5f9"
    stroke-width="3.5"
    stroke-linecap="round"
    stroke-linejoin="round"
    opacity="0.85"
  />
</svg>
